<svg width="392" height="233" viewBox="0 0 392 233" fill="none" xmlns="http://www.w3.org/2000/svg">
<rect width="392" height="232" rx="25" fill="#52459D"/>
<path d="M291.445 35.5878C347.16 28.1409 391.694 59.6861 391.694 59.6861V183.262C391.694 183.262 363.286 150.708 339.642 137.572C317.412 125.221 302.654 113.762 277.565 117.908C246.564 123.029 235.648 146.495 219.151 173.237C206.27 194.116 197.558 232.23 197.558 232.23H143C143 232.23 162.985 213.317 173.46 199.263C201.702 161.372 194.088 117.908 215.295 85.7122C234.879 55.9798 256.156 40.3046 291.445 35.5878Z" fill="#6356BF"/>
<path d="M242.67 185.926C232.89 201.51 232.838 232.002 232.838 232.002H255.78C255.78 232.002 260.831 220.042 265.998 213.688C275.313 202.232 283.211 195.477 297.807 193.252C311.274 191.2 319.728 194.92 331.738 201.349C350.823 211.566 368.938 231.666 368.938 231.666L372.882 230.539L376.974 228.849C376.974 228.849 351.402 196.144 338.678 183.806C320.859 166.528 305.621 152.037 281.228 156.623C262.641 160.118 252.724 169.907 242.67 185.926Z" fill="#1FC0B8"/>
</svg>
