<svg width="26" height="26" viewBox="0 0 26 26" fill="none" xmlns="http://www.w3.org/2000/svg">
<g clip-path="url(#clip0_104_1235)">
<path d="M23.3316 11.4388C25.753 9.01738 25.753 5.09151 23.3316 2.6701C20.9102 0.248702 16.9843 0.248702 14.5629 2.6701L2.67315 14.5599C0.251748 16.9813 0.25175 20.9072 2.67315 23.3286C5.09456 25.75 9.02042 25.75 11.4418 23.3286L23.3316 11.4388Z" stroke="#52459D" stroke-miterlimit="10"/>
<path d="M8.61865 8.61554C5.31177 11.9224 14.0807 20.6913 17.3876 17.3844" stroke="#52459D" stroke-miterlimit="10"/>
<mask id="mask0_104_1235" style="mask-type:luminance" maskUnits="userSpaceOnUse" x="0" y="8" width="18" height="18">
<path d="M17.3825 17.3844L11.4371 23.3289C10.2742 24.4917 8.69709 25.145 7.0526 25.145C5.40811 25.145 3.83098 24.4917 2.66815 23.3289C1.50532 22.1661 0.852051 20.5889 0.852051 18.9444C0.852051 17.3 1.50532 15.7228 2.66815 14.56L8.61362 8.61554C5.30674 11.9224 14.0746 20.6913 17.3825 17.3844Z" fill="white"/>
</mask>
<g mask="url(#mask0_104_1235)">
<path d="M0.852295 8.61554H17.3826" stroke="#52459D" stroke-miterlimit="10"/>
<path d="M0.852295 10.4518H17.3826" stroke="#52459D" stroke-miterlimit="10"/>
<path d="M0.852295 12.2891H17.3826" stroke="#52459D" stroke-miterlimit="10"/>
<path d="M0.852295 14.1253H17.3826" stroke="#52459D" stroke-miterlimit="10"/>
<path d="M0.852295 15.9626H17.3826" stroke="#52459D" stroke-miterlimit="10"/>
<path d="M0.852295 17.7988H17.3826" stroke="#52459D" stroke-miterlimit="10"/>
<path d="M0.852295 19.6351H17.3826" stroke="#52459D" stroke-miterlimit="10"/>
<path d="M0.852295 21.4724H17.3826" stroke="#52459D" stroke-miterlimit="10"/>
<path d="M0.852295 23.3086H17.3826" stroke="#52459D" stroke-miterlimit="10"/>
<path d="M0.852295 25.1448H17.3826" stroke="#52459D" stroke-miterlimit="10"/>
</g>
</g>
<defs>
<clipPath id="clip0_104_1235">
<rect width="26" height="26" fill="white"/>
</clipPath>
</defs>
</svg>
