<svg width="28" height="28" viewBox="0 0 28 28" fill="none" xmlns="http://www.w3.org/2000/svg">
<path d="M4.375 6.125C4.85825 6.125 5.25 5.73325 5.25 5.25C5.25 4.76675 4.85825 4.375 4.375 4.375C3.89175 4.375 3.5 4.76675 3.5 5.25C3.5 5.73325 3.89175 6.125 4.375 6.125Z" stroke="#52459D" stroke-width="2" stroke-miterlimit="10" stroke-linecap="round" stroke-linejoin="round"/>
<path d="M4.375 14.875C4.85825 14.875 5.25 14.4832 5.25 14C5.25 13.5168 4.85825 13.125 4.375 13.125C3.89175 13.125 3.5 13.5168 3.5 14C3.5 14.4832 3.89175 14.875 4.375 14.875Z" stroke="#52459D" stroke-width="2" stroke-miterlimit="10" stroke-linecap="round" stroke-linejoin="round"/>
<path d="M4.375 23.625C4.85825 23.625 5.25 23.2332 5.25 22.75C5.25 22.2668 4.85825 21.875 4.375 21.875C3.89175 21.875 3.5 22.2668 3.5 22.75C3.5 23.2332 3.89175 23.625 4.375 23.625Z" stroke="#52459D" stroke-width="2" stroke-miterlimit="10" stroke-linecap="round" stroke-linejoin="round"/>
<path d="M8.75 5.25H24.5" stroke="#52459D" stroke-width="2" stroke-miterlimit="10" stroke-linecap="round" stroke-linejoin="round"/>
<path d="M8.75 14H24.5" stroke="#52459D" stroke-width="2" stroke-miterlimit="10" stroke-linecap="round" stroke-linejoin="round"/>
<path d="M8.75 22.75H24.5" stroke="#52459D" stroke-width="2" stroke-miterlimit="10" stroke-linecap="round" stroke-linejoin="round"/>
</svg>
