<svg width="42" height="42" viewBox="0 0 42 42" fill="none" xmlns="http://www.w3.org/2000/svg">
<path d="M31.7673 20.7327L30.5455 19.7257C31.4357 18.652 31.9249 17.3022 31.9296 15.9075C31.9297 14.705 31.5611 13.5314 30.8735 12.5449C30.186 11.5584 29.2125 10.8065 28.0843 10.3903C26.9562 9.97424 25.7275 9.91402 24.5641 10.2178C23.4006 10.5216 22.3583 11.1748 21.5775 12.0893L21 12.8291L20.4034 12.1132C19.6227 11.1986 18.5804 10.5455 17.4169 10.2417C16.2534 9.93788 15.0248 9.9981 13.8966 10.4142C12.7685 10.8303 11.795 11.5823 11.1074 12.5688C10.4199 13.5553 10.0513 14.7289 10.0514 15.9314C10.056 17.3261 10.5453 18.6758 11.4355 19.7495L10.2328 20.7566C8.99139 19.3087 8.35298 17.4396 8.44918 15.5349C8.54539 13.6301 9.36888 11.8349 10.7498 10.5194C12.1308 9.20396 13.9639 8.46861 15.8711 8.46499C17.7783 8.46138 19.6141 9.18979 21 10.5C22.3943 9.24747 24.2094 8.56646 26.0834 8.59273C27.9574 8.61901 29.7527 9.35065 31.1113 10.6418C32.4699 11.9329 33.2919 13.6886 33.4135 15.5589C33.5351 17.4292 32.9473 19.2766 31.7673 20.7327Z" fill="#52459D"/>
<path d="M20.3414 26.9277L17.745 21.3055L16.7905 23.3434H8.49072V21.778H15.8073L17.7403 17.5636L20.1648 22.8136L23.3148 13.9698L26.2071 21.797H33.5094V23.3625H25.1141L23.3482 18.5564L20.3414 26.9277Z" fill="#52459D"/>
<path d="M22.1406 33.5093H19.8592L13.3635 25.8157L14.5567 24.8182L20.5799 31.9773H21.4199L27.4335 24.8182L28.6363 25.8157L22.1406 33.5093Z" fill="#52459D"/>
</svg>
