<svg width="28" height="28" viewBox="0 0 28 28" fill="none" xmlns="http://www.w3.org/2000/svg">
<g clip-path="url(#clip0_104_1252)">
<path d="M6.12504 16.3333V22.4175C6.12236 23.0713 6.24848 23.7193 6.4962 24.3243C6.74393 24.9294 7.10841 25.4798 7.56884 25.944C8.02926 26.4082 8.57661 26.7772 9.17964 27.0299C9.78266 27.2826 10.4296 27.414 11.0834 27.4167C11.7372 27.414 12.3841 27.2826 12.9871 27.0299C13.5901 26.7772 14.1375 26.4082 14.5979 25.944C15.0583 25.4798 15.4228 24.9294 15.6705 24.3243C15.9183 23.7193 16.0444 23.0713 16.0417 22.4175V15.75" stroke="#52459D" stroke-width="1.3" stroke-linecap="round" stroke-linejoin="round"/>
<path d="M6.12508 16.3333C7.41375 16.3333 8.45842 15.2887 8.45842 14C8.45842 12.7113 7.41375 11.6667 6.12508 11.6667C4.83642 11.6667 3.79175 12.7113 3.79175 14C3.79175 15.2887 4.83642 16.3333 6.12508 16.3333Z" stroke="#52459D" stroke-width="1.3" stroke-linecap="round" stroke-linejoin="round"/>
<path d="M20.8542 1.75L22.3126 1.16666L20.8542 0.583328V1.75Z" stroke="#52459D" stroke-width="1.3" stroke-linecap="round" stroke-linejoin="round"/>
<path d="M10.5001 1.16667H9.30716C8.45841 1.16667 7.77882 2.04167 7.87507 3.01876C8.53132 8.90751 11.2847 15.75 16.0417 15.75C20.7988 15.75 23.5522 8.90751 24.2084 3.01876C24.3047 2.04167 23.6251 1.16667 22.7763 1.16667H21.5834" stroke="#52459D" stroke-width="1.3" stroke-linecap="round" stroke-linejoin="round"/>
<path d="M11.2291 1.75L9.77075 1.16666L11.2291 0.583328V1.75Z" stroke="#52459D" stroke-width="1.3" stroke-linecap="round" stroke-linejoin="round"/>
<path d="M6.12508 14.5833C6.44725 14.5833 6.70841 14.3222 6.70841 14C6.70841 13.6778 6.44725 13.4167 6.12508 13.4167C5.80292 13.4167 5.54175 13.6778 5.54175 14C5.54175 14.3222 5.80292 14.5833 6.12508 14.5833Z" stroke="#52459D" stroke-width="1.2" stroke-linecap="round" stroke-linejoin="round"/>
</g>
<defs>
<clipPath id="clip0_104_1252">
<rect width="28" height="28" fill="white"/>
</clipPath>
</defs>
</svg>
