<svg width="24" height="24" viewBox="0 0 24 24" fill="none" xmlns="http://www.w3.org/2000/svg">
<g clip-path="url(#clip0_104_1201)">
<path d="M23.1239 0.873004C21.9899 -0.259996 20.0139 -0.259996 18.8809 0.873004L0.294929 19.459C0.144929 19.609 0.045929 19.803 0.013929 20.013C-0.044071 20.384 0.027929 20.936 0.400929 21.37C0.644929 21.655 1.10693 21.994 1.92493 21.994C2.39893 21.994 2.80393 22.003 3.04093 21.994C4.84093 21.923 6.59293 21.515 8.24893 20.783C10.8399 19.637 12.6199 17.581 13.4099 14.828L23.1219 5.116C24.2919 3.946 24.2919 2.044 23.1219 0.874004L23.1239 0.873004ZM7.44093 18.953C6.01593 19.583 4.50893 19.933 2.96193 19.995C2.77093 20.003 2.62293 20.003 2.58093 20.001L9.61493 12.968L11.3839 14.618C10.7159 16.634 9.38993 18.091 7.44093 18.953ZM21.7089 3.701L12.4929 12.917L11.0299 11.553L20.2959 2.287C20.6729 1.908 21.3319 1.908 21.7099 2.287C22.0999 2.677 22.0989 3.311 21.7089 3.701ZM17.9999 23C17.9999 23.553 17.5519 24 16.9999 24H14.9999C14.4479 24 13.9999 23.553 13.9999 23C13.9999 22.447 14.4479 22 14.9999 22H16.9999C17.5519 22 17.9999 22.447 17.9999 23ZM11.9999 23C11.9999 23.553 11.5519 24 10.9999 24H8.99993C8.44793 24 7.99993 23.553 7.99993 23C7.99993 22.447 8.44793 22 8.99993 22H10.9999C11.5519 22 11.9999 22.447 11.9999 23ZM23.9999 23C23.9999 23.553 23.5519 24 22.9999 24H20.9999C20.4479 24 19.9999 23.553 19.9999 23C19.9999 22.447 20.4479 22 20.9999 22H22.9999C23.5519 22 23.9999 22.447 23.9999 23Z" fill="#52459D"/>
</g>
<defs>
<clipPath id="clip0_104_1201">
<rect width="24" height="24" fill="white"/>
</clipPath>
</defs>
</svg>
