<svg width="24" height="24" viewBox="0 0 24 24" fill="none" xmlns="http://www.w3.org/2000/svg">
<g clip-path="url(#clip0_104_1263)">
<path d="M23 22H22V2H23C23.553 2 24 1.553 24 1C24 0.447 23.553 0 23 0H1C0.447 0 0 0.447 0 1C0 1.553 0.447 2 1 2H2V22H1C0.447 22 0 22.447 0 23C0 23.553 0.447 24 1 24H23C23.553 24 24 23.553 24 23C24 22.447 23.553 22 23 22ZM4 2H20V22H4V2ZM17.85 15.653C17.436 14.642 16.5 14.008 15.4 14H13.001V12H15.001C15.554 12 16.001 11.553 16.001 11C16.001 10.447 15.554 10 15.001 10H13.001V8H17.001C17.554 8 18.001 7.553 18.001 7C18.001 6.447 17.554 6 17.001 6H13.001V5C13.001 4.447 12.554 4 12.001 4C11.448 4 11.001 4.447 11.001 5V6H7.001C6.448 6 6.001 6.447 6.001 7C6.001 7.553 6.448 8 7.001 8H11.001V10H9.001C8.448 10 8.001 10.447 8.001 11C8.001 11.553 8.448 12 9.001 12H11.001V14H8.561C7.474 14.009 6.543 14.639 6.131 15.645C5.719 16.651 5.941 17.753 6.709 18.522L7.309 19.122C7.875 19.688 8.629 20.001 9.43 20.001H14.573C15.374 20.001 16.128 19.689 16.694 19.122L17.27 18.546C18.042 17.774 18.265 16.665 17.851 15.654L17.85 15.653ZM15.855 17.131L15.279 17.707C15.092 17.894 14.835 18 14.572 18H9.429C9.166 18 8.908 17.894 8.722 17.707L8.122 17.107C7.847 16.832 7.932 16.522 7.98 16.402C8.029 16.283 8.186 16.003 8.6 16H15.391C15.788 16.003 15.949 16.289 15.998 16.411C16.049 16.534 16.135 16.849 15.853 17.131H15.855Z" fill="#52459D"/>
</g>
<defs>
<clipPath id="clip0_104_1263">
<rect width="24" height="24" fill="white"/>
</clipPath>
</defs>
</svg>
