<svg width="26" height="26" viewBox="0 0 26 26" fill="none" xmlns="http://www.w3.org/2000/svg">
<path d="M19.6689 8.02317C22.114 8.31892 23.6242 8.71542 23.8333 8.71325C24.3175 8.70783 24.7584 8.38717 24.883 7.89642C25.0304 7.31683 24.6804 6.7275 24.1009 6.58017C23.9958 6.55308 22.4802 6.17392 19.9029 5.86517C20.1846 3.705 20.4955 2.45592 20.5009 2.43317C20.6483 1.85358 20.2973 1.26425 19.7177 1.11692C19.1392 0.970666 18.5488 1.3195 18.4014 1.89908C18.3765 1.99767 18.0385 3.34533 17.7417 5.65067C16.3475 5.54017 14.756 5.46433 12.9989 5.46433C11.1756 5.46433 9.53436 5.5445 8.10761 5.66042C8.3817 3.62592 8.67311 2.45375 8.67853 2.43208C8.82586 1.8525 8.47486 1.26317 7.89528 1.11583C7.31461 0.969583 6.72636 1.31842 6.57903 1.898C6.55303 1.99983 6.19336 3.43742 5.88895 5.88683C3.4287 6.19125 1.99653 6.55417 1.8947 6.58017C1.31511 6.72858 0.967365 7.319 1.11578 7.89858C1.2642 8.47817 1.8557 8.82483 2.4342 8.67858C2.45586 8.67317 3.62153 8.37958 5.66145 8.1055C5.54336 9.5355 5.4632 11.1778 5.4632 12.9989C5.4632 14.7583 5.53686 16.3486 5.64736 17.7396C3.33553 18.0375 1.99328 18.3766 1.8947 18.4026C1.31511 18.551 0.967365 19.1414 1.11578 19.721C1.2642 20.3006 1.8557 20.6473 2.4342 20.501C2.45695 20.4956 3.69845 20.1836 5.86186 19.9008C6.1717 22.4878 6.54978 23.9991 6.58011 24.102C6.86178 25.0727 7.80753 24.9047 7.89853 24.8809C8.47811 24.7325 8.82695 24.1421 8.67853 23.5625C8.67203 23.5387 8.31561 22.1173 8.01986 19.6657C9.45636 19.5401 11.1312 19.4512 12.9989 19.4512C14.7235 19.4512 16.2879 19.5282 17.6529 19.6397C17.967 22.386 18.3776 23.9926 18.4014 24.102C18.617 25.0477 19.6289 24.9047 19.7199 24.8809C20.2994 24.7325 20.6483 24.1421 20.4999 23.5625C20.4934 23.5398 20.1564 22.1953 19.8661 19.8672C22.1899 20.1576 23.6534 20.5389 23.8322 20.5335C24.3164 20.5194 24.7574 20.2074 24.8819 19.7167C25.0293 19.1371 24.6794 18.5478 24.0998 18.4004C23.9914 18.3733 22.3751 17.9682 19.6386 17.654C19.527 16.2912 19.4512 14.7279 19.4512 12.9978C19.4512 11.1356 19.5411 9.45967 19.6668 8.021L19.6689 8.02317ZM12.9999 17.2857C11.0467 17.2857 9.30253 17.3767 7.80645 17.5078C7.70136 16.1807 7.63095 14.6673 7.63095 13C7.63095 11.0662 7.72737 9.33508 7.8617 7.86067C9.33286 7.72742 11.0619 7.63208 12.9999 7.63208C14.665 7.63208 16.1795 7.70358 17.5099 7.80867C17.3788 9.30692 17.2867 11.0511 17.2867 13C17.2867 14.638 17.3506 16.1287 17.4492 17.4493C16.1264 17.3507 14.6358 17.2857 13.001 17.2857H12.9999Z" fill="#52459D"/>
</svg>
