<svg width="26" height="26" viewBox="0 0 26 26" fill="none" xmlns="http://www.w3.org/2000/svg">
<g clip-path="url(#clip0_28_289)">
<path d="M20.5833 0H5.41667C3.98061 0.00172018 2.60385 0.572955 1.5884 1.5884C0.572955 2.60385 0.00172018 3.98061 0 5.41667L0 20.5833C0.00172018 22.0194 0.572955 23.3961 1.5884 24.4116C2.60385 25.427 3.98061 25.9983 5.41667 26H20.5833C22.0194 25.9983 23.3961 25.427 24.4116 24.4116C25.427 23.3961 25.9983 22.0194 26 20.5833V5.41667C25.9983 3.98061 25.427 2.60385 24.4116 1.5884C23.3961 0.572955 22.0194 0.00172018 20.5833 0ZM5.41667 2.16667H20.5833C21.4453 2.16667 22.2719 2.50908 22.8814 3.11857C23.4909 3.72806 23.8333 4.55471 23.8333 5.41667V20.5833C23.8315 21.0659 23.7204 21.5419 23.5083 21.9754L13.5817 12.0488C13.0787 11.5457 12.4816 11.1466 11.8243 10.8743C11.167 10.602 10.4625 10.4618 9.75108 10.4618C9.03964 10.4618 8.33516 10.602 7.67789 10.8743C7.02061 11.1466 6.42342 11.5457 5.92042 12.0488L2.16667 15.8015V5.41667C2.16667 4.55471 2.50908 3.72806 3.11857 3.11857C3.72806 2.50908 4.55471 2.16667 5.41667 2.16667ZM5.41667 23.8333C4.55471 23.8333 3.72806 23.4909 3.11857 22.8814C2.50908 22.2719 2.16667 21.4453 2.16667 20.5833V18.8652L7.45117 13.5807C7.75298 13.2787 8.11135 13.0391 8.5058 12.8756C8.90024 12.7122 9.32303 12.628 9.75 12.628C10.177 12.628 10.5998 12.7122 10.9942 12.8756C11.3886 13.0391 11.747 13.2787 12.0488 13.5807L21.9754 23.5083C21.5419 23.7204 21.0659 23.8315 20.5833 23.8333H5.41667Z" fill="#52459D"/>
<path d="M17.3334 11.375C18.0833 11.375 18.8164 11.1526 19.44 10.736C20.0635 10.3194 20.5495 9.72718 20.8365 9.03434C21.1234 8.3415 21.1985 7.57913 21.0522 6.84362C20.9059 6.1081 20.5448 5.43249 20.0145 4.90222C19.4843 4.37195 18.8086 4.01082 18.0731 3.86452C17.3376 3.71822 16.5752 3.79331 15.8824 4.08029C15.1896 4.36727 14.5974 4.85326 14.1808 5.4768C13.7641 6.10033 13.5417 6.83341 13.5417 7.58333C13.5417 8.58895 13.9412 9.55337 14.6523 10.2644C15.3634 10.9755 16.3278 11.375 17.3334 11.375ZM17.3334 5.95833C17.6548 5.95833 17.969 6.05364 18.2362 6.23219C18.5034 6.41075 18.7117 6.66454 18.8347 6.96147C18.9577 7.2584 18.9899 7.58514 18.9272 7.90035C18.8645 8.21557 18.7097 8.50512 18.4825 8.73238C18.2552 8.95964 17.9657 9.11441 17.6504 9.17711C17.3352 9.23981 17.0085 9.20763 16.7116 9.08464C16.4146 8.96165 16.1608 8.75336 15.9823 8.48613C15.8037 8.2189 15.7084 7.90473 15.7084 7.58333C15.7084 7.15236 15.8796 6.73903 16.1844 6.43428C16.4891 6.12954 16.9024 5.95833 17.3334 5.95833Z" fill="#52459D"/>
</g>
<defs>
<clipPath id="clip0_28_289">
<rect width="26" height="26" fill="white"/>
</clipPath>
</defs>
</svg>
