<svg width="26" height="26" viewBox="0 0 26 26" fill="none" xmlns="http://www.w3.org/2000/svg">
<path d="M24.8116 7.08283C24.0793 6.71666 23.2158 6.79358 22.5615 7.2865C22.5193 7.31791 22.4792 7.35366 22.4423 7.3905L20.5389 9.31125C20.3103 6.5325 18.0028 4.33441 15.1667 4.33441H5.41667C2.42992 4.33333 0 6.76325 0 9.75V16.25C0 19.2367 2.42992 21.6667 5.41667 21.6667H15.1667C18.0148 21.6667 20.332 19.4491 20.5422 16.6541L22.4445 18.5542C22.4813 18.59 22.5193 18.6225 22.5604 18.6539C22.9418 18.9399 23.3924 19.0851 23.8474 19.0851C24.1757 19.0851 24.5039 19.0103 24.8116 18.8565C25.545 18.4903 26 17.7526 26 16.9347V9.00683C26 8.18675 25.545 7.449 24.8116 7.08283ZM15.1667 19.5H5.41667C3.62483 19.5 2.16667 18.0418 2.16667 16.25V9.75C2.16667 7.95816 3.62483 6.5 5.41667 6.5H15.1667C16.9585 6.5 18.4167 7.95816 18.4167 9.75V16.25C18.4167 18.0418 16.9585 19.5 15.1667 19.5ZM20.5833 13.6316V12.3435L23.8333 9.06316L23.8604 16.9043L20.5833 13.6305V13.6316Z" fill="#52459D"/>
</svg>
