<svg width="26" height="26" viewBox="0 0 26 26" fill="none" xmlns="http://www.w3.org/2000/svg">
<path d="M13.0001 5.41663C14.4958 5.41663 15.7084 4.20408 15.7084 2.70832C15.7084 1.21255 14.4958 0 13.0001 0C11.5043 0 10.2917 1.21255 10.2917 2.70832C10.2917 4.20408 11.5043 5.41663 13.0001 5.41663Z" fill="#A5A5A5"/>
<path d="M13.0001 15.7083C14.4958 15.7083 15.7084 14.4958 15.7084 13C15.7084 11.5042 14.4958 10.2917 13.0001 10.2917C11.5043 10.2917 10.2917 11.5042 10.2917 13C10.2917 14.4958 11.5043 15.7083 13.0001 15.7083Z" fill="#A5A5A5"/>
<path d="M13.0001 26C14.4958 26 15.7084 24.7875 15.7084 23.2917C15.7084 21.7959 14.4958 20.5834 13.0001 20.5834C11.5043 20.5834 10.2917 21.7959 10.2917 23.2917C10.2917 24.7875 11.5043 26 13.0001 26Z" fill="#A5A5A5"/>
</svg>
