<svg width="24" height="20" viewBox="0 0 24 20" fill="none" xmlns="http://www.w3.org/2000/svg">
<path d="M13.1668 5.225V1.66667C13.1668 1.35725 13.2897 1.0605 13.5085 0.841709C13.7273 0.622916 14.024 0.5 14.3334 0.5C14.6395 0.501289 14.9328 0.622798 15.1501 0.838333L23.3168 9.005C23.4261 9.11346 23.5129 9.24249 23.5721 9.38466C23.6314 9.52683 23.6619 9.67932 23.6619 9.83333C23.6619 9.98735 23.6314 10.1398 23.5721 10.282C23.5129 10.4242 23.4261 10.5532 23.3168 10.6617L15.1501 18.8283C14.9863 18.9889 14.7789 19.0976 14.5536 19.1409C14.3284 19.1842 14.0954 19.1601 13.8838 19.0717C13.6722 18.9833 13.4913 18.8345 13.3638 18.6439C13.2362 18.4533 13.1677 18.2293 13.1668 18V14.3833H12.1751C10.3319 14.3558 8.50472 14.7298 6.82049 15.4792C5.13626 16.2287 3.63529 17.3357 2.42177 18.7233C2.27553 18.918 2.07203 19.0621 1.8398 19.1353C1.60756 19.2085 1.35824 19.2073 1.12677 19.1317C0.891214 19.0522 0.68721 18.8995 0.5445 18.6959C0.401793 18.4924 0.327845 18.2485 0.333437 18C0.333437 7.36 9.7601 5.54 13.1668 5.225ZM12.1751 12.0267C12.9554 12.0242 13.735 12.0749 14.5084 12.1783C14.7846 12.2202 15.0366 12.3599 15.2186 12.5718C15.4006 12.7838 15.5005 13.054 15.5001 13.3333V15.1883L20.8434 9.83333L15.5001 4.47833V6.33333C15.5001 6.64275 15.3772 6.9395 15.1584 7.15829C14.9396 7.37708 14.6429 7.5 14.3334 7.5C13.2718 7.5 4.87177 7.73333 3.05177 15.0017C5.69346 13.054 8.89307 12.0106 12.1751 12.0267Z" fill="#52459D"/>
</svg>
