<svg width="35" height="35" viewBox="0 0 35 35" fill="none" xmlns="http://www.w3.org/2000/svg">
<g clip-path="url(#clip0_28_18)">
<path d="M20.7812 22.9688H14.2188C13.3485 22.9688 12.5139 23.3145 11.8986 23.9298C11.2832 24.5452 10.9375 25.3798 10.9375 26.25V28.4375H13.125V26.25C13.125 25.9599 13.2402 25.6817 13.4454 25.4766C13.6505 25.2715 13.9287 25.1562 14.2188 25.1562H20.7812C21.0713 25.1562 21.3495 25.2715 21.5546 25.4766C21.7598 25.6817 21.875 25.9599 21.875 26.25V28.4375H24.0625V26.25C24.0625 25.3798 23.7168 24.5452 23.1014 23.9298C22.4861 23.3145 21.6515 22.9688 20.7812 22.9688Z" fill="#52459D"/>
<path d="M17.5 21.875C18.3653 21.875 19.2112 21.6184 19.9306 21.1377C20.6501 20.657 21.2108 19.9737 21.542 19.1742C21.8731 18.3748 21.9597 17.4951 21.7909 16.6465C21.6221 15.7978 21.2054 15.0183 20.5936 14.4064C19.9817 13.7946 19.2022 13.3779 18.3535 13.2091C17.5049 13.0403 16.6252 13.1269 15.8258 13.458C15.0263 13.7892 14.3431 14.3499 13.8623 15.0694C13.3816 15.7888 13.125 16.6347 13.125 17.5C13.125 18.6603 13.5859 19.7731 14.4064 20.5936C15.2269 21.4141 16.3397 21.875 17.5 21.875ZM17.5 15.3125C17.9326 15.3125 18.3556 15.4408 18.7153 15.6812C19.075 15.9215 19.3554 16.2632 19.521 16.6629C19.6866 17.0626 19.7299 17.5024 19.6455 17.9268C19.5611 18.3511 19.3527 18.7409 19.0468 19.0468C18.7409 19.3527 18.3511 19.5611 17.9268 19.6455C17.5024 19.7299 17.0626 19.6866 16.6629 19.521C16.2632 19.3554 15.9215 19.075 15.6812 18.7153C15.4408 18.3556 15.3125 17.9326 15.3125 17.5C15.3125 16.9198 15.543 16.3634 15.9532 15.9532C16.3634 15.543 16.9198 15.3125 17.5 15.3125Z" fill="#52459D"/>
<path d="M27.3438 5.46875H24.0625V4.375C24.0625 3.79484 23.832 3.23844 23.4218 2.8282C23.0116 2.41797 22.4552 2.1875 21.875 2.1875H13.125C12.5448 2.1875 11.9884 2.41797 11.5782 2.8282C11.168 3.23844 10.9375 3.79484 10.9375 4.375V5.46875H7.65625C7.07609 5.46875 6.51969 5.69922 6.10945 6.10945C5.69922 6.51969 5.46875 7.07609 5.46875 7.65625V30.625C5.46875 31.2052 5.69922 31.7616 6.10945 32.1718C6.51969 32.582 7.07609 32.8125 7.65625 32.8125H27.3438C27.9239 32.8125 28.4803 32.582 28.8905 32.1718C29.3008 31.7616 29.5312 31.2052 29.5312 30.625V7.65625C29.5312 7.07609 29.3008 6.51969 28.8905 6.10945C28.4803 5.69922 27.9239 5.46875 27.3438 5.46875ZM13.125 4.375H21.875V8.75H13.125V4.375ZM27.3438 30.625H7.65625V7.65625H10.9375V10.9375H24.0625V7.65625H27.3438V30.625Z" fill="#52459D"/>
</g>
<defs>
<clipPath id="clip0_28_18">
<rect width="35" height="35" fill="white"/>
</clipPath>
</defs>
</svg>
