<svg width="30" height="30" viewBox="0 0 30 30" fill="none" xmlns="http://www.w3.org/2000/svg">
<g clip-path="url(#clip0_28_15)">
<path d="M29.0738 20.25L25.8238 8.53622C25.1298 6.03049 23.6176 3.8289 21.5279 2.28183C19.4382 0.734762 16.891 -0.068874 14.2919 -0.00117441C11.6927 0.0665252 9.19083 1.00167 7.18449 2.65543C5.17816 4.30918 3.78263 6.58651 3.22002 9.12497L0.706266 20.4375C0.584632 20.9855 0.587599 21.5539 0.714948 22.1006C0.842297 22.6474 1.09078 23.1586 1.44206 23.5965C1.79334 24.0344 2.23846 24.3878 2.74457 24.6307C3.25068 24.8737 3.80488 24.9998 4.36627 25H8.87502C9.16191 26.4128 9.92843 27.6831 11.0447 28.5954C12.161 29.5078 13.5583 30.0062 15 30.0062C16.4417 30.0062 17.8391 29.5078 18.9553 28.5954C20.0716 27.6831 20.8381 26.4128 21.125 25H25.4625C26.0402 24.9997 26.6099 24.866 27.1274 24.6093C27.6448 24.3526 28.096 23.9798 28.4457 23.52C28.7953 23.0603 29.0341 22.5259 29.1432 21.9587C29.2524 21.3915 29.2278 20.8067 29.0738 20.25ZM15 27.5C14.2272 27.4968 13.4742 27.2549 12.8441 26.8074C12.2141 26.3599 11.7376 25.7286 11.48 25H18.52C18.2624 25.7286 17.786 26.3599 17.1559 26.8074C16.5258 27.2549 15.7728 27.4968 15 27.5ZM26.4563 22.0062C26.3397 22.1608 26.1885 22.286 26.0148 22.3717C25.8412 22.4575 25.6499 22.5014 25.4563 22.5H4.36627C4.17909 22.4999 3.99432 22.4579 3.82557 22.3769C3.65683 22.2959 3.50844 22.178 3.39133 22.032C3.27423 21.886 3.19142 21.7155 3.149 21.5332C3.10658 21.3509 3.10565 21.1614 3.14627 20.9787L5.66002 9.66622C6.10296 7.67398 7.19915 5.88698 8.77434 4.58928C10.3495 3.29159 12.3133 2.55769 14.3535 2.50424C16.3937 2.45079 18.3932 3.08087 20.0341 4.29431C21.6751 5.50775 22.8634 7.2349 23.41 9.20122L26.66 20.915C26.7131 21.1002 26.7223 21.2952 26.6869 21.4846C26.6516 21.6741 26.5726 21.8526 26.4563 22.0062Z" fill="#52459D"/>
</g>
<defs>
<clipPath id="clip0_28_15">
<rect width="30" height="30" fill="white"/>
</clipPath>
</defs>
</svg>
