<svg width="30" height="30" viewBox="0 0 30 30" fill="none" xmlns="http://www.w3.org/2000/svg">
<g clip-path="url(#clip0_28_10)">
<path d="M29.9999 14.0587C29.8192 11.1337 28.7864 8.32561 27.0289 5.9805C25.2715 3.6354 22.8662 1.85584 20.1096 0.861216C17.353 -0.133406 14.3656 -0.299611 11.5156 0.383092C8.66572 1.06579 6.07787 2.56756 4.07114 4.70325C2.0644 6.83893 0.726497 9.51518 0.222373 12.402C-0.28175 15.2889 0.0699416 18.2602 1.23409 20.9496C2.39824 23.639 4.32396 25.929 6.77383 27.5372C9.22371 29.1453 12.0906 30.0015 15.0212 30H23.7499C25.407 29.9983 26.9958 29.3393 28.1675 28.1676C29.3393 26.9958 29.9983 25.4071 29.9999 23.75V14.0587ZM27.4999 23.75C27.4999 24.7445 27.1049 25.6984 26.4016 26.4016C25.6983 27.1049 24.7445 27.5 23.7499 27.5H15.0212C13.2574 27.4992 11.5135 27.1266 9.90332 26.4066C8.29313 25.6866 6.85279 24.6353 5.6762 23.3212C4.49391 22.0078 3.60611 20.4568 3.07231 18.7722C2.53852 17.0876 2.37107 15.3083 2.5812 13.5537C2.91299 10.7861 4.15643 8.20771 6.1155 6.22488C8.07456 4.24205 10.6378 2.96761 13.4012 2.60247C13.9402 2.53491 14.4829 2.50068 15.0262 2.49997C17.9393 2.49203 20.7622 3.50985 22.9999 5.37497C24.3069 6.46115 25.3796 7.80141 26.1531 9.31451C26.9266 10.8276 27.3848 12.482 27.4999 14.1775V23.75Z" fill="#52459D"/>
<path d="M10 11.25H15C15.3315 11.25 15.6495 11.1183 15.8839 10.8839C16.1183 10.6495 16.25 10.3315 16.25 10C16.25 9.66848 16.1183 9.35054 15.8839 9.11612C15.6495 8.8817 15.3315 8.75 15 8.75H10C9.66848 8.75 9.35054 8.8817 9.11612 9.11612C8.8817 9.35054 8.75 9.66848 8.75 10C8.75 10.3315 8.8817 10.6495 9.11612 10.8839C9.35054 11.1183 9.66848 11.25 10 11.25Z" fill="#52459D"/>
<path d="M20 13.75H10C9.66848 13.75 9.35054 13.8817 9.11612 14.1161C8.8817 14.3505 8.75 14.6685 8.75 15C8.75 15.3315 8.8817 15.6495 9.11612 15.8839C9.35054 16.1183 9.66848 16.25 10 16.25H20C20.3315 16.25 20.6495 16.1183 20.8839 15.8839C21.1183 15.6495 21.25 15.3315 21.25 15C21.25 14.6685 21.1183 14.3505 20.8839 14.1161C20.6495 13.8817 20.3315 13.75 20 13.75Z" fill="#52459D"/>
<path d="M20 18.75H10C9.66848 18.75 9.35054 18.8817 9.11612 19.1161C8.8817 19.3505 8.75 19.6685 8.75 20C8.75 20.3315 8.8817 20.6495 9.11612 20.8839C9.35054 21.1183 9.66848 21.25 10 21.25H20C20.3315 21.25 20.6495 21.1183 20.8839 20.8839C21.1183 20.6495 21.25 20.3315 21.25 20C21.25 19.6685 21.1183 19.3505 20.8839 19.1161C20.6495 18.8817 20.3315 18.75 20 18.75Z" fill="#52459D"/>
</g>
<defs>
<clipPath id="clip0_28_10">
<rect width="30" height="30" fill="white"/>
</clipPath>
</defs>
</svg>
