<svg width="30" height="30" viewBox="0 0 30 30" fill="none" xmlns="http://www.w3.org/2000/svg">
<g clip-path="url(#clip0_28_23)">
<path d="M29.451 26.8065L23.6446 20.9976C27.9892 15.1917 26.8046 6.96292 20.9986 2.61827C15.1926 -1.72638 6.9639 -0.541735 2.61925 5.26423C-1.7254 11.0702 -0.540758 19.299 5.26521 23.6436C9.92904 27.1336 16.3347 27.1336 20.9986 23.6436L26.8075 29.4525C27.5375 30.1825 28.721 30.1825 29.451 29.4525C30.1809 28.7225 30.1809 27.539 29.451 26.809L29.451 26.8065ZM13.1803 22.5224C8.02025 22.5224 3.83724 18.3394 3.83724 13.1793C3.83724 8.01928 8.02025 3.83626 13.1803 3.83626C18.3404 3.83626 22.5234 8.01928 22.5234 13.1793C22.5179 18.3371 18.3381 22.5169 13.1803 22.5224Z" fill="#52459D"/>
</g>
<defs>
<clipPath id="clip0_28_23">
<rect width="30" height="30" fill="white"/>
</clipPath>
</defs>
</svg>
